<svg viewBox="0 0 800 500" preserveAspectRatio="none" xmlns="http://www.w3.org/2000/svg" xmlns:xlink="http://www.w3.org/1999/xlink" width="100%" height="100%" id="blobSvg">
  <g transform="translate(143.53895568847656, 0.6958236694335938)">
    <path class="blob" d="M462,284Q438,318,430.5,356.5Q423,395,382.5,402Q342,409,312,421Q282,433,245.5,456.5Q209,480,178,454.5Q147,429,114.5,410Q82,391,52.5,362Q23,333,48,291.5Q73,250,54.5,211Q36,172,58.5,140Q81,108,116.5,94Q152,80,180.5,49.5Q209,19,246.5,37.5Q284,56,319,63Q354,70,396.5,81Q439,92,454.5,131Q470,170,478,210Q486,250,462,284Z" fill="#ABD9FF"></path>
  </g>
</svg>