<svg viewBox="0 0 800 500" preserveAspectRatio="none" xmlns="http://www.w3.org/2000/svg" xmlns:xlink="http://www.w3.org/1999/xlink" width="100%" id="blobSvg">
    <path class="blob" d="M451,278Q403,306,400.5,340Q398,374,372,395Q346,416,313.5,422Q281,428,244.5,457Q208,486,168,474Q128,462,114,419Q100,376,79,348Q58,320,40,285Q22,250,44.5,217Q67,184,64,137.5Q61,91,117,103.5Q173,116,190.5,63.5Q208,11,248,23.5Q288,36,318,58.5Q348,81,365.5,109.5Q383,138,412,159Q441,180,470,215Q499,250,451,278Z" fill="#FFF56D"></path>
</svg>